<svg xmlns="http://www.w3.org/2000/svg" width="340.288" height="204.607" viewBox="0 0 340.288 204.607"><defs><style>.a{fill:#fff;}</style></defs><g transform="translate(0.01)"><path class="a" d="M6.13,90.53V70.806H17.9V21.221H6.13V0H67.685V21.221H55.85V70.738H67.685V90.53Z" transform="translate(35.622)"/><path class="a" d="M440.855,363.639V343.914h8.434v-20.4c0-6.258-4.421-9.046-10.134-9.046a12.311,12.311,0,0,0-12.719,12.583v17.14h8.706v19.725H387.53V344.186h8.162V314.395H387.53V294.67h38.157v13.6a15.464,15.464,0,0,0,1.768-1.9A31.356,31.356,0,0,1,453.37,295.35c14.964,0,27.207,6.054,27.207,22.718v26.05H488.6v19.793Z" transform="translate(-278.373 -273.109)"/><path class="a" d="M483.1,323.7,456.5,326.628c-.34-7.346-1.836-15.168-10.883-15.168-11.427,0-12.311,9.522-12.311,18.637h0c0,9.182.884,18.7,12.311,18.7a10.339,10.339,0,0,0,11.291-10.747h26.527v2.313c-4.353,21.561-23.806,24.894-37.749,24.894-21.97,0-43.6-10.815-43.6-35.3h0c0-24.486,21.629-35.3,43.6-35.3C445.553,294.932,479.969,292.688,483.1,323.7Z" transform="translate(-193.9 -273.167)"/><path class="a" d="M436.146,312.793a11.155,11.155,0,1,1-3.267-7.956,11.223,11.223,0,0,1,3.267,7.956Z" transform="translate(-126.543 -233.077)"/><path class="a" d="M425.048,306.12c-26.322,0-41.558,17.548-41.558,52.237s15.236,52.373,41.558,52.373,41.762-18.025,41.762-52.373S451.031,306.12,425.048,306.12Zm0,83.593c-9.591,0-11.631-9.25-11.631-31.288s2.04-31.22,11.631-31.22,11.631,9.182,11.631,31.22-2.109,31.288-11.563,31.288Z" transform="translate(-301.812 -206.679)"/><path class="a" d="M438,306.12c-26.322,0-41.626,17.548-41.626,52.237S411.674,410.73,438,410.73s41.694-18.025,41.694-52.373S463.911,306.12,438,306.12Zm0,83.593c-9.591,0-11.631-9.25-11.631-31.288s2.04-31.22,11.631-31.22,11.631,9.182,11.631,31.22-1.972,31.288-11.563,31.288Z" transform="translate(-227.086 -206.679)"/><path class="a" d="M450.818,306.12c-26.322,0-41.558,17.548-41.558,52.237S424.5,410.73,450.818,410.73s41.762-18.025,41.762-52.373S476.8,306.12,450.818,306.12Zm0,83.593c-9.59,0-11.631-9.25-11.631-31.288s2.041-31.22,11.631-31.22,11.631,9.182,11.631,31.22-1.972,31.288-11.563,31.288Z" transform="translate(-152.302 -206.679)"/><path class="a" d="M440.653,347.428a33.531,33.531,0,0,0-23.942-7.958,27.887,27.887,0,0,0-19.317,6.8l2.177-16.12h42.85V306.21H380.186l-6.8,47.612,18.161,9.455a26.73,26.73,0,0,1,16.528-6.8,12.31,12.31,0,0,1,8.706,3.333,17.821,17.821,0,0,1,4.557,13.2,23.132,23.132,0,0,1-.612,5.645,11.155,11.155,0,0,1-11.9,9.522c-11.767,0-10.747-14.624-8.162-19.793h0L371.48,383.545c2.177,18.5,20.881,27.207,36.8,27.207a43.327,43.327,0,0,0,28.907-10.134,32.857,32.857,0,0,0,7.55-9.183,38.024,38.024,0,0,0,5.034-18.5,32.92,32.92,0,0,0-9.114-25.506Z" transform="translate(-371.49 -206.157)"/></g></svg>